<svg xmlns="http://www.w3.org/2000/svg" width="1600" height="900" viewBox="0 0 1600 900" fill="none">
  <defs>
    <linearGradient id="bg" x1="102" y1="78" x2="1498" y2="852" gradientUnits="userSpaceOnUse">
      <stop offset="0" stop-color="#07111F"/>
      <stop offset="0.55" stop-color="#0B1830"/>
      <stop offset="1" stop-color="#050A12"/>
    </linearGradient>
    <linearGradient id="cyan" x1="0" y1="0" x2="1" y2="1">
      <stop stop-color="#06D6F7"/>
      <stop offset="1" stop-color="#3B82F6"/>
    </linearGradient>
    <linearGradient id="card" x1="245" y1="124" x2="1354" y2="789" gradientUnits="userSpaceOnUse">
      <stop stop-color="#0D1627" stop-opacity="0.94"/>
      <stop offset="1" stop-color="#0A1220" stop-opacity="0.9"/>
    </linearGradient>
    <radialGradient id="glow1" cx="0" cy="0" r="1" gradientUnits="userSpaceOnUse" gradientTransform="translate(1248 180) rotate(132) scale(330 280)">
      <stop stop-color="#06D6F7" stop-opacity="0.38"/>
      <stop offset="1" stop-color="#06D6F7" stop-opacity="0"/>
    </radialGradient>
    <radialGradient id="glow2" cx="0" cy="0" r="1" gradientUnits="userSpaceOnUse" gradientTransform="translate(286 744) rotate(15) scale(360 220)">
      <stop stop-color="#FF4D8D" stop-opacity="0.22"/>
      <stop offset="1" stop-color="#FF4D8D" stop-opacity="0"/>
    </radialGradient>
    <filter id="panelShadow" x="188" y="88" width="1224" height="736" filterUnits="userSpaceOnUse" color-interpolation-filters="sRGB">
      <feOffset dy="20"/>
      <feGaussianBlur stdDeviation="26"/>
      <feColorMatrix type="matrix" values="0 0 0 0 0 0 0 0 0 0.0156863 0 0 0 0 0.0784314 0 0 0 0.52 0"/>
      <feBlend in2="SourceGraphic" result="shape"/>
    </filter>
    <filter id="smallShadow" x="853" y="173" width="497" height="537" filterUnits="userSpaceOnUse" color-interpolation-filters="sRGB">
      <feOffset dy="16"/>
      <feGaussianBlur stdDeviation="18"/>
      <feColorMatrix type="matrix" values="0 0 0 0 0 0 0 0 0 0.0156863 0 0 0 0 0.0784314 0 0 0 0.4 0"/>
      <feBlend in2="SourceGraphic" result="shape"/>
    </filter>
  </defs>

  <rect width="1600" height="900" fill="url(#bg)"/>
  <ellipse cx="1248" cy="180" rx="312" ry="250" fill="url(#glow1)"/>
  <ellipse cx="286" cy="744" rx="320" ry="210" fill="url(#glow2)"/>

  <g filter="url(#panelShadow)">
    <rect x="224" y="110" width="1152" height="684" rx="40" fill="url(#card)"/>
    <rect x="224.75" y="110.75" width="1150.5" height="682.5" rx="39.25" stroke="#284160" stroke-width="1.5"/>
  </g>

  <rect x="258" y="146" width="1084" height="40" rx="20" fill="#101A2C"/>
  <circle cx="290" cy="166" r="5" fill="#FF6B6B"/>
  <circle cx="312" cy="166" r="5" fill="#F5C84C"/>
  <circle cx="334" cy="166" r="5" fill="#31D67C"/>

  <g>
    <rect x="280" y="238" width="84" height="84" rx="26" fill="url(#cyan)"/>
    <g fill="#08111E">
      <rect x="307" y="274" width="30" height="8" rx="4"/>
      <rect x="300" y="268" width="5" height="20" rx="2.5"/>
      <rect x="293" y="271" width="4" height="14" rx="2"/>
      <rect x="339" y="268" width="5" height="20" rx="2.5"/>
      <rect x="347" y="271" width="4" height="14" rx="2"/>
    </g>
  </g>

  <text x="280" y="386" fill="#F4F8FF" font-family="Bebas Neue, Impact, Arial Narrow, sans-serif" font-size="108" letter-spacing="2">FITCOACH</text>
  <text x="280" y="438" fill="#8CEEFF" font-family="Poppins, Segoe UI, Arial, sans-serif" font-size="28" font-weight="600">AI fitness coaching for workouts, nutrition, and progress tracking</text>
  <text x="280" y="494" fill="#C0CEE4" font-family="Poppins, Segoe UI, Arial, sans-serif" font-size="24" font-weight="400">Built with React, FastAPI, trained datasets, ML models, RAG, and bilingual AI chat.</text>

  <g>
    <rect x="280" y="548" width="192" height="58" rx="29" fill="#121E31" stroke="#243756"/>
    <text x="319" y="585" fill="#EAF4FF" font-family="Poppins, Segoe UI, Arial, sans-serif" font-size="21" font-weight="600">Dataset-first</text>
  </g>
  <g>
    <rect x="490" y="548" width="220" height="58" rx="29" fill="#121E31" stroke="#243756"/>
    <text x="530" y="585" fill="#EAF4FF" font-family="Poppins, Segoe UI, Arial, sans-serif" font-size="21" font-weight="600">Smart personalization</text>
  </g>
  <g>
    <rect x="728" y="548" width="190" height="58" rx="29" fill="#121E31" stroke="#243756"/>
    <text x="777" y="585" fill="#EAF4FF" font-family="Poppins, Segoe UI, Arial, sans-serif" font-size="21" font-weight="600">Arabic + English</text>
  </g>

  <g>
    <rect x="280" y="646" width="280" height="68" rx="34" fill="url(#cyan)"/>
    <text x="334" y="689" fill="#07111F" font-family="Poppins, Segoe UI, Arial, sans-serif" font-size="26" font-weight="700">Presentation Cover</text>
  </g>

  <g filter="url(#smallShadow)">
    <rect x="889" y="189" width="425" height="465" rx="34" fill="#111A2B"/>
    <rect x="889.75" y="189.75" width="423.5" height="463.5" rx="33.25" stroke="#2A3E5F" stroke-width="1.5"/>

    <text x="924" y="248" fill="#F5F9FF" font-family="Poppins, Segoe UI, Arial, sans-serif" font-size="26" font-weight="700">Weekly AI Plan</text>
    <text x="924" y="282" fill="#79DDF7" font-family="Poppins, Segoe UI, Arial, sans-serif" font-size="16" font-weight="500">Generated from trained fitness and nutrition datasets</text>

    <rect x="924" y="322" width="355" height="106" rx="24" fill="#0C1423" stroke="#1F2E49"/>
    <text x="950" y="360" fill="#EFF6FF" font-family="Poppins, Segoe UI, Arial, sans-serif" font-size="21" font-weight="700">Workout</text>
    <text x="950" y="394" fill="#A8BCD8" font-family="Poppins, Segoe UI, Arial, sans-serif" font-size="18">4 training days</text>
    <text x="1105" y="394" fill="#A8BCD8" font-family="Poppins, Segoe UI, Arial, sans-serif" font-size="18">Recovery aware</text>

    <rect x="924" y="450" width="355" height="106" rx="24" fill="#0C1423" stroke="#1F2E49"/>
    <text x="950" y="488" fill="#EFF6FF" font-family="Poppins, Segoe UI, Arial, sans-serif" font-size="21" font-weight="700">Nutrition</text>
    <text x="950" y="522" fill="#A8BCD8" font-family="Poppins, Segoe UI, Arial, sans-serif" font-size="18">2,280 kcal</text>
    <text x="1080" y="522" fill="#A8BCD8" font-family="Poppins, Segoe UI, Arial, sans-serif" font-size="18">168 g protein</text>

    <rect x="924" y="584" width="160" height="42" rx="21" fill="#172439"/>
    <text x="955" y="611" fill="#C8D7EC" font-family="Poppins, Segoe UI, Arial, sans-serif" font-size="16">Plan match 82%</text>
    <rect x="1100" y="584" width="179" height="42" rx="21" fill="#172439"/>
    <text x="1142" y="611" fill="#C8D7EC" font-family="Poppins, Segoe UI, Arial, sans-serif" font-size="16">Schedule ready</text>
  </g>

  <g>
    <circle cx="812" cy="294" r="48" fill="#0E1828" stroke="#263C5B"/>
    <circle cx="812" cy="294" r="31" stroke="#06D6F7" stroke-width="10" stroke-linecap="round" stroke-dasharray="148 44"/>
    <text x="792" y="301" fill="#EFF7FF" font-family="Poppins, Segoe UI, Arial, sans-serif" font-size="18" font-weight="700">AI</text>
  </g>

  <text x="1128" y="750" fill="#6F86A8" font-family="JetBrains Mono, Consolas, monospace" font-size="16">1600 x 900 thumbnail</text>
</svg>
